<svg id="Layer_1" enable-background="new 0 0 512 512" height="512" viewBox="0 0 512 512" width="512" xmlns="http://www.w3.org/2000/svg"><g><path d="m256 22c-135.31 0-245 109.69-245 245 0 48.447 14.067 93.605 38.333 131.623 2.749-1.857 6.06-2.943 9.619-2.943h5.693v-113.876c0-2.059 1.675-3.734 3.734-3.734h39.534v-8.794c0-2.059 1.675-3.734 3.734-3.734h59.349c1.542 0 2.942.979 3.486 2.437l.669 1.795 35.312-51.043c11.949 9.682 26.923 15.001 42.289 15.001h18.563c15.366 0 30.34-5.32 42.29-15.001l19.655 28.412h43.169c19.16 0 34.748 15.588 34.748 34.749v173.879h1c54.258-44.941 88.823-112.818 88.823-188.771 0-135.31-109.69-245-245-245z" fill="#fe99a0"/><g fill="#fd8087"><path d="m64.646 307h-50.396c5.467 33.277 17.64 64.294 35.083 91.623 2.749-1.857 6.06-2.943 9.619-2.943h5.693v-88.68z"/><path d="m411.18 307v148.769h1c44.523-36.878 75.769-89.21 85.552-148.769z"/></g><path d="m376.431 246.142h-43.86l33.839 48.913c.793 1.146 1.081 2.53.813 3.897-.269 1.368-1.06 2.54-2.227 3.302l-33.153 21.618 30.849 20.556c2.203 1.468 2.864 4.397 1.507 6.669l-49.732 83.223-1 1.548v67.18l1 1.912c36.451-8.927 69.709-25.997 97.713-49.192v-173.878c0-19.743-16.005-35.748-35.749-35.748z" fill="#f8f6f6"/><g><g><g><path d="m210.605 490h-56.16c17.391 7.936 35.874 13.894 55.159 17.594l1-1.693v-15.901z" fill="#f8f6f6"/></g><g><path d="m169.471 277.985 22.03-31.843h-43.86c-18.452 0-33.636 13.981-35.543 31.928h57.45z" fill="#f8f6f6"/></g></g><g><path d="m343.335 237.132h-162.599c-13.113 0-23.744-10.63-23.744-23.744v-130.627c.001-45.708 37.054-82.761 82.762-82.761h44.564c45.708 0 82.761 37.053 82.761 82.761v130.627c0 13.113-10.63 23.744-23.744 23.744z" fill="#883f2e"/></g><g fill="#6d3326"><path d="m174.44 114.708h11.038v-7.05c0-6.895 5.59-12.485 12.485-12.485h11.037v-12.412c0-44.46 35.06-80.719 79.039-82.667-1.234-.055-2.473-.094-3.721-.094h-44.564c-45.708 0-82.761 37.053-82.761 82.761v39.437c4.388-4.611 10.579-7.49 17.447-7.49z"/><path d="m186.96 180.51h-12.52c-6.868 0-13.059-2.879-17.447-7.49v40.368c0 13.113 10.63 23.744 23.744 23.744h15.782l13.002-18.794c-.029-.138-.051-.279-.077-.417-11.23-9.461-19.319-22.523-22.484-37.411z"/></g><path d="m367.232 294.486-53.422-77.219c-11.514 9.645-26.334 15.465-42.493 15.465h-18.563c-16.159 0-30.979-5.82-42.493-15.465l-42.065 60.803h42.408v-25.97c0-2.734 2.224-4.958 4.958-4.958h92.946c2.733 0 4.958 2.224 4.958 4.958v185.845l51.591-86.334c1.63-2.727.833-6.253-1.811-8.014l-29.586-19.715 31.882-20.79c2.886-1.882 3.65-5.774 1.69-8.606z" fill="#fff"/><path d="m308.509 246.142h-92.946c-3.291 0-5.958 2.668-5.958 5.958v25.97h4.661c2.059 0 3.734 1.675 3.734 3.734v204.462c0 2.059-1.675 3.734-3.734 3.734h-4.661v17.594c15.025 2.88 30.53 4.406 46.395 4.406 20.152 0 39.729-2.451 58.467-7.039v-252.861c0-3.291-2.667-5.958-5.958-5.958z" fill="#8ac9fe"/><path d="m215.563 246.142c-3.291 0-5.958 2.668-5.958 5.958v25.97h4.661c2.059 0 3.734 1.675 3.734 3.734v204.462c0 2.059-1.675 3.734-3.734 3.734h-4.661v17.594c10.252 1.965 20.734 3.283 31.395 3.933v-259.427c0-3.291 2.668-5.958 5.958-5.958z" fill="#60b7ff"/><g><g><g><path d="m186.478 166.455v-51.747h-12.038c-13.303 0-24.088 10.785-24.088 24.088v17.625c0 13.303 10.785 24.088 24.088 24.088h13.552c-.983-4.532-1.514-9.231-1.514-14.054z" fill="#f6a96c"/><path d="m349.632 114.708h-12.038v51.747c0 4.823-.531 9.522-1.514 14.055h13.552c13.303 0 24.088-10.785 24.088-24.088v-17.625c0-13.304-10.784-24.089-24.088-24.089z" fill="#ffbd86"/></g><path d="m293.345 242.567v-13.614c-6.897 2.438-14.307 3.779-22.028 3.779h-18.563c-7.721 0-15.131-1.34-22.028-3.778v13.614c0 1.974-1.601 3.575-3.575 3.575h-6.822l38.669 62.354c1.398 2.254 4.678 2.254 6.076 0l38.668-62.354h-6.822c-1.974-.001-3.575-1.602-3.575-3.576z" fill="#ffbd86"/><path d="m251.587 246.142h.235c1.974 0 3.575-1.601 3.575-3.575v-8.836h-2.643c-7.718 0-15.124-1.317-22.028-3.709v12.544c0 1.974-1.601 3.575-3.575 3.575h-6.822l38.669 62.354c1.398 2.254 4.678 2.254 6.076 0l9.297-14.992-25.9-41.764c-1.514-2.442.242-5.597 3.116-5.597z" fill="#f6a96c"/><g><path d="m305.998 58.389h-8.656c-4.723 0-9.024 2.674-11.15 6.891-8.943 17.729-27.304 29.893-48.517 29.893h-39.711c-6.895 0-12.485 5.59-12.485 12.485v58.797c0 37.156 30.121 67.276 67.276 67.276h18.563c37.155 0 67.276-30.12 67.276-67.276v-75.47c0-18.002-14.594-32.596-32.596-32.596z" fill="#fed2a4"/></g><g><path d="m216.885 166.455v-58.797c0-6.895 5.59-12.485 12.485-12.485h-31.406c-6.895 0-12.485 5.59-12.485 12.485v58.797c0 37.156 30.121 67.276 67.276 67.276h18.563c2.167 0 4.307-.112 6.422-.313-34.143-3.234-60.855-31.974-60.855-66.963z" fill="#ffbd86"/></g></g><g><g><g><path d="m223.062 141.2c-4.142 0-7.5-3.358-7.5-7.5v-12.155c0-4.142 3.358-7.5 7.5-7.5s7.5 3.358 7.5 7.5v12.155c0 4.142-3.358 7.5-7.5 7.5z" fill="#d88a55"/></g><g><path d="m299.937 141.2c-4.143 0-7.5-3.358-7.5-7.5v-12.155c0-4.142 3.357-7.5 7.5-7.5s7.5 3.358 7.5 7.5v12.155c0 4.142-3.358 7.5-7.5 7.5z" fill="#d88a55"/></g></g><g><path d="m264.098 208.551c-11.328 0-21.983-4.416-30.002-12.436-2.929-2.929-2.929-7.678 0-10.606 2.929-2.929 7.678-2.929 10.606 0 5.187 5.186 12.074 8.042 19.396 8.042s14.209-2.856 19.395-8.042c2.931-2.929 7.68-2.929 10.606 0 2.93 2.929 2.93 7.677.001 10.606-8.02 8.02-18.674 12.436-30.002 12.436z" fill="#d88a55"/></g><g><path d="m269.878 166.946h-7.842c-6.298 0-11.421-5.123-11.421-11.42v-18.297c0-4.142 3.357-7.5 7.5-7.5s7.5 3.358 7.5 7.5v14.718h4.263c4.143 0 7.5 3.358 7.5 7.5s-3.357 7.499-7.5 7.499z" fill="#d88a55"/></g></g></g><g><path d="m214.266 277.069h-39.534v11.317c0 2.059-1.675 3.734-3.734 3.734h-59.349c-2.059 0-3.734-1.675-3.734-3.734v-11.317h-39.535c-2.615 0-4.734 2.12-4.734 4.734v113.877h21.137c5.116 0 9.368 3.851 9.679 8.766.256 4.049-2.116 7.786-5.904 9.299l-2.325.929 2.325.929c3.543 1.416 5.923 4.911 5.923 8.698s-2.38 7.282-5.923 8.698l-2.325.929 2.325.929c3.543 1.415 5.923 4.91 5.923 8.698 0 3.787-2.38 7.282-5.923 8.697l-2.325.929 2.325.929c3.788 1.513 6.161 5.25 5.904 9.299-.311 4.915-4.562 8.765-9.679 8.765h-21.137v14.093c0 2.615 2.12 4.734 4.734 4.734h145.885c2.615 0 4.734-2.12 4.734-4.734v-204.463c.001-2.615-2.119-4.735-4.733-4.735z" fill="#0182fc"/><path d="m99.646 486.266v-204.462c0-2.615 2.12-4.734 4.734-4.734h-36c-2.615 0-4.734 2.12-4.734 4.734v113.877h21.137c5.116 0 9.368 3.851 9.679 8.766.256 4.049-2.116 7.786-5.904 9.299l-2.325.929 2.325.929c3.543 1.416 5.923 4.911 5.923 8.698s-2.38 7.282-5.923 8.698l-2.325.929 2.325.929c3.543 1.415 5.923 4.91 5.923 8.698 0 3.787-2.38 7.282-5.923 8.697l-2.325.929 2.325.929c3.788 1.513 6.161 5.25 5.904 9.299-.311 4.915-4.562 8.765-9.679 8.765h-21.137v14.093c0 2.615 2.12 4.734 4.734 4.734h36c-2.615-.002-4.734-2.122-4.734-4.736z" fill="#0172fb"/><g><path d="m170.997 293.121h-59.349c-2.615 0-4.734-2.12-4.734-4.734v-19.111c0-2.615 2.12-4.734 4.734-4.734h59.349c2.615 0 4.734 2.12 4.734 4.734v19.111c.001 2.614-2.119 4.734-4.734 4.734z" fill="#acacac"/></g><path d="m138 288.386v-19.111c0-2.615 2.12-4.734 4.734-4.734h-31.086c-2.615 0-4.734 2.12-4.734 4.734v19.111c0 2.615 2.12 4.734 4.734 4.734h31.086c-2.614.001-4.734-2.119-4.734-4.734z" fill="#9c9c9c"/><g><path d="m84.783 473.172c5.527 0 10.327-4.186 10.677-9.702.294-4.636-2.511-8.685-6.531-10.291 3.827-1.528 6.552-5.271 6.552-9.626s-2.726-8.098-6.552-9.626c3.827-1.528 6.552-5.271 6.552-9.626s-2.726-8.098-6.552-9.626c4.02-1.606 6.825-5.655 6.531-10.291-.349-5.516-5.15-9.703-10.677-9.703h-25.83c-10.067 0-18.228 8.161-18.228 18.228v42.035c0 10.067 8.161 18.228 18.228 18.228z" fill="#fed2a4"/></g><path d="m61.244 454.944v-42.035c0-10.067 8.161-18.228 18.228-18.228h-20.519c-10.067 0-18.228 8.161-18.228 18.228v42.035c0 10.067 8.161 18.228 18.228 18.228h20.519c-10.067 0-18.228-8.161-18.228-18.228z" fill="#ffbd86"/></g></g></g></svg>